<svg xmlns="http://www.w3.org/2000/svg" width="100" height="97.502" viewBox="0 0 100 97.502"><defs><style>.a{fill:#99fff5;}</style></defs><path class="a" d="M33.448,86.508c0,.4-.464.726-1.048.726-.665.06-1.129-.262-1.129-.726,0-.4.464-.726,1.048-.726C32.923,85.722,33.448,86.044,33.448,86.508Zm-6.27-.907c-.141.4.262.867.867.988a.946.946,0,0,0,1.25-.4c.121-.4-.262-.867-.867-1.048a1.035,1.035,0,0,0-1.25.464Zm8.911-.343c-.585.141-.988.524-.927.988.06.4.585.665,1.19.524.585-.141.988-.524.927-.927C37.218,85.46,36.673,85.2,36.089,85.258ZM49.355,8C21.391,8,0,29.23,0,57.194a50.546,50.546,0,0,0,34.173,48.226c2.581.464,3.488-1.129,3.488-2.439,0-1.25-.06-8.145-.06-12.379,0,0-14.113,3.024-17.077-6.008,0,0-2.3-5.867-5.6-7.379,0,0-4.617-3.165.323-3.1a10.642,10.642,0,0,1,7.782,5.2c4.415,7.782,11.815,5.544,14.7,4.214a11.206,11.206,0,0,1,3.226-6.794c-11.27-1.25-22.641-2.883-22.641-22.278,0-5.544,1.532-8.327,4.758-11.875a19.049,19.049,0,0,1,.524-13.689C27.8,27.577,37.5,34.331,37.5,34.331a47.63,47.63,0,0,1,25.323,0s9.7-6.774,13.911-5.444c2.762,7,1.048,12.379.524,13.689,3.226,3.569,5.2,6.351,5.2,11.875,0,19.456-11.875,21.008-23.145,22.278,1.855,1.593,3.427,4.617,3.427,9.355,0,6.794-.06,15.2-.06,16.855,0,1.31.927,2.9,3.488,2.44C86.331,98.685,100,79.552,100,57.194,100,29.23,77.319,8,49.355,8ZM19.6,77.536c-.262.2-.2.665.141,1.048.323.323.786.464,1.048.2.262-.2.2-.665-.141-1.048C20.323,77.415,19.859,77.274,19.6,77.536ZM17.419,75.9c-.141.262.06.585.464.786a.6.6,0,0,0,.867-.141c.141-.262-.06-.585-.464-.786C17.883,75.641,17.56,75.7,17.419,75.9Zm6.532,7.177c-.323.262-.2.867.262,1.25.464.464,1.048.524,1.31.2.262-.262.141-.867-.262-1.25C24.819,82.819,24.214,82.758,23.952,83.081Zm-2.3-2.964c-.323.2-.323.726,0,1.19s.867.665,1.129.464a.92.92,0,0,0,0-1.25c-.282-.464-.806-.665-1.129-.4Z" transform="translate(0 -8)"/></svg>