<svg xmlns="http://www.w3.org/2000/svg" xmlns:xlink="http://www.w3.org/1999/xlink" viewBox="0 0 202.54 162.91"><defs><style>.a,.b,.c{opacity:0.32;}.a{fill:url(#a);}.b{fill:url(#b);}.c{fill:url(#c);}</style><linearGradient id="a" x1="71.38" y1="-368.1" x2="152.04" y2="-497.29" gradientTransform="matrix(-1, 0, 0, 1, 202.54, 520.63)" gradientUnits="userSpaceOnUse"><stop offset="0" stop-color="#005b97"/><stop offset="0.14" stop-color="#1d7aa9"/><stop offset="0.44" stop-color="#52b3c9"/><stop offset="0.69" stop-color="#78dce1"/><stop offset="0.88" stop-color="#90f6f0"/><stop offset="1" stop-color="#99fff5"/></linearGradient><linearGradient id="b" x1="117.77" y1="-337.23" x2="121.8" y2="-484.85" xlink:href="#a"/><linearGradient id="c" x1="107.84" y1="-419.67" x2="-84.8" y2="-419.45" xlink:href="#a"/></defs><title>Gradient Triangle - Shadow</title><polygon class="a" points="48.36 144.23 202.46 144.23 202.54 144.12 191.07 125.54 125.49 19.36 113.54 0 89.36 0 101.32 19.36 113.4 38.93 166.89 125.54 59.9 125.54 48.36 144.23"/><polygon class="b" points="0 144.25 12.28 162.91 12.65 162.91 24.19 144.23 35.73 125.54 89.24 38.92 101.32 58.49 142.73 125.54 166.89 125.54 113.4 38.93 101.32 19.36 89.36 0 89.11 0 77.15 19.35 11.56 125.54 0.02 144.23 0 144.25"/><polygon class="c" points="12.65 162.91 190.02 162.91 202.46 144.23 48.36 144.23 59.9 125.54 101.32 58.49 89.24 38.92 35.73 125.54 24.19 144.23 12.65 162.91"/></svg>