<svg xmlns="http://www.w3.org/2000/svg" xmlns:xlink="http://www.w3.org/1999/xlink" viewBox="0 0 202.54 162.91"><defs><style>.a{fill:url(#a);}.b{fill:url(#b);}.c{fill:url(#c);}</style><linearGradient id="a" x1="71.38" y1="152.53" x2="152.04" y2="23.34" gradientUnits="userSpaceOnUse"><stop offset="0" stop-color="#99fff5"/><stop offset="0.12" stop-color="#90f6f0"/><stop offset="0.31" stop-color="#78dce1"/><stop offset="0.56" stop-color="#52b3c9"/><stop offset="0.86" stop-color="#1d7aa9"/><stop offset="1" stop-color="#005b97"/></linearGradient><linearGradient id="b" x1="117.77" y1="183.41" x2="121.8" y2="35.78" xlink:href="#a"/><linearGradient id="c" x1="107.85" y1="100.97" x2="-84.79" y2="101.19" xlink:href="#a"/></defs><title>Gradient Triangle - original</title><polygon class="a" points="154.18 144.23 0.08 144.23 0 144.12 11.47 125.54 77.05 19.36 89 0 113.18 0 101.22 19.36 89.14 38.93 35.65 125.54 142.64 125.54 154.18 144.23"/><polygon class="b" points="202.54 144.25 190.26 162.91 189.89 162.91 178.35 144.23 166.81 125.54 113.3 38.92 101.22 58.49 59.81 125.54 35.65 125.54 89.14 38.93 101.22 19.36 113.18 0 113.43 0 125.39 19.35 190.98 125.54 202.52 144.23 202.54 144.25"/><polygon class="c" points="189.89 162.91 12.52 162.91 0.08 144.23 154.18 144.23 142.64 125.54 101.22 58.49 113.3 38.92 166.81 125.54 178.35 144.23 189.89 162.91"/></svg>