<svg xmlns="http://www.w3.org/2000/svg" width="95" height="95" viewBox="0 0 95 95"><defs><style>.a{fill:#99fff5;}</style></defs><path class="a" d="M88.214,32H6.765A6.815,6.815,0,0,0,0,38.849v81.3A6.815,6.815,0,0,0,6.765,127h81.45A6.833,6.833,0,0,0,95,120.151v-81.3A6.833,6.833,0,0,0,88.214,32Zm-59.5,81.429H14.632V68.092h14.1v45.337ZM21.672,61.9a8.164,8.164,0,1,1,8.164-8.164A8.168,8.168,0,0,1,21.672,61.9Zm59.82,51.529H67.412V91.375c0-5.259-.106-12.023-7.316-12.023-7.337,0-8.461,5.725-8.461,11.642v22.435H37.555V68.092H51.063v6.192h.191c1.887-3.563,6.489-7.316,13.338-7.316,14.25,0,16.9,9.394,16.9,21.608Z" transform="translate(0 -32)"/></svg>