<svg id="Layer_1" data-name="Layer 1" xmlns="http://www.w3.org/2000/svg" viewBox="0 0 25 46.35"><title>Scroll</title><path id="Mouse_Body" data-name="Mouse Body" d="M12.5,3.13a9.39,9.39,0,0,0-9.37,9.4V25.07a9.38,9.38,0,1,0,18.75,0V12.53A9.4,9.4,0,0,0,12.5,3.13ZM12.5,0A12.51,12.51,0,0,1,25,12.53V25.07a12.5,12.5,0,1,1-25,0V12.53A12.51,12.51,0,0,1,12.5,0Z" transform="translate(0 0)"/><path id="Scrolling_Button" data-name="Scrolling Button" d="M10.85,9.47a1.65,1.65,0,1,1,3.3,0v9a1.65,1.65,0,1,1-3.3,0Z" transform="translate(0 0)"/><path id="Arrow" d="M21.63,39.34a1.65,1.65,0,0,0-2.26-.62l-6.86,4-6.86-4,0,0a1.64,1.64,0,0,0-2.25.65A1.71,1.71,0,0,0,4,41.64l7.34,4.26a1.74,1.74,0,0,0,2.27,0l7.4-4.3A1.7,1.7,0,0,0,21.63,39.34Z" transform="translate(0 0)"/></svg>