<svg xmlns="http://www.w3.org/2000/svg" viewBox="0 0 207.59 167.71">
    <defs>
        <style>
            .a {
                fill: #99fff5;
            }
        </style>
    </defs>
    <path class="a"
        d="M159.2,146.59l-76.9.52-77.42.6H4.26l-.38-.51-.08-.11-.49-.66.43-.72L92,1.15l.59-1H93.8L118,0l4,0-2.08,3.41-38.44,63L62,97.72c-6.46,10.46-13,20.85-19.57,31.27l-2-3.51,26.75.25,13.37.14,13.37.21,26.75.41c8.92.11,17.83.33,26.75.52h.45l.21.36c1.92,3.25,3.8,6.52,5.65,9.74S157.37,143.5,159.2,146.59Zm-.44-.24c-2-3.13-4.08-6.21-6.09-9.21s-4-6-5.89-8.95l.66.37c-8.92.18-17.83.4-26.75.52l-26.75.4-13.37.21-13.37.14-26.75.25-4.13,0,2.17-3.55c6.4-10.5,12.73-21,19.19-31.5L77,63.65,116.09,1.08,118,4.46,93.8,4.31l1.76-1L5.85,147l0-1.38.08.11-1-.51,76.67.6Z" />
    <path class="a"
        d="M207.59,146.49,201.72,156l-6,9.61-.22.34h-1.24l-.25-.39-9.91-15.29-9.81-15.35c-6.53-10.25-13.12-20.45-19.6-30.72L135.25,73.39Q125.56,58,115.94,42.5h4.32L106.94,64.18,93.49,85.79,66.5,129,65.83,130H64.61l-24.16-.15-3.72,0,2-3.14L116.84,1.54l.4-.64H119l.38.63Zm-.5,0L117.1,2.94l1.13.63H118l1.13-.63L42.21,128.87l-1.76-3.16,24.16-.15-1.89,1,26.5-43.46,13.29-21.7,13.43-21.62,2.17-3.49,2.15,3.49q9.55,15.49,19,31.1l18.85,31.18c6.3,10.38,12.47,20.85,18.7,31.27L186.13,149l9.24,15.7-.68-.38h.37l-.66.35,6.27-9.05Z" />
    <path class="a"
        d="M194.91,165.27l-43.67.72L107,166.8c-14.86.22-29.77.48-44.74.62l-22.45.21-22.46.07H16l-.77-1.14L2.72,147.91,0,143.85l4.88,0,154.1.8-1.53,2.74-52.55-86-.42-.7.42-.68,12.19-19.5,1-1.64,1,1.64,38,62.6Zm-.44-.24-38.79-61.86L117.09,41.78h2l-12,19.64V60l53.38,85.49,1.7,2.72-3.23,0-154.1.8L7,145l12.4,18.71-2.12-1.14,21.88.07,21.89.22c14.6.13,29.25.4,44,.62l44.41.8Z" />
</svg>